<svg width="625" height="71" viewBox="0 0 625 71" fill="none" xmlns="http://www.w3.org/2000/svg">
<path d="M17.6816 39.9492V61.9219C17.6816 62.8984 17.9095 63.6634 18.3652 64.2168C18.8535 64.7376 19.6673 65.1445 20.8066 65.4375V67H0.00585938V65.4375C1.17773 65.112 1.99154 64.6888 2.44727 64.168C2.90299 63.6471 3.13086 62.8984 3.13086 61.9219V5.47656C3.13086 4.46745 2.90299 3.70247 2.44727 3.18164C1.99154 2.66081 1.17773 2.23763 0.00585938 1.91211V0.349609H41.6074C46.4577 0.349609 50.2988 0.67513 53.1309 1.32617C55.9954 1.97721 58.5182 3.10026 60.6992 4.69531C62.9453 6.35547 64.7031 8.53646 65.9727 11.2383C67.2422 14.0378 67.877 17 67.877 20.125C67.877 24.6172 66.6725 28.556 64.2637 31.9414C62.1803 34.8385 59.4134 36.9056 55.9629 38.1426C52.5449 39.347 47.7598 39.9492 41.6074 39.9492H17.6816ZM17.6816 28.9629H39.8984C44.3255 28.9629 47.4342 28.4909 49.2246 27.5469C50.3639 26.9284 51.2754 25.9518 51.959 24.6172C52.6751 23.25 53.0332 21.7526 53.0332 20.125C53.0332 18.5299 52.6751 17.0651 51.959 15.7305C51.2754 14.3633 50.3639 13.3704 49.2246 12.752C47.4668 11.8079 44.3581 11.3359 39.8984 11.3359H17.6816V28.9629ZM91.2656 43.7578V57.0879H125.982C126.992 57.0879 127.757 56.86 128.277 56.4043C128.831 55.9486 129.27 55.1185 129.596 53.9141H130.963V70.125H129.596C129.303 68.9857 128.88 68.1719 128.326 67.6836C127.773 67.2279 126.992 67 125.982 67H75.0547V65.6328C76.194 65.3398 76.9915 64.9167 77.4473 64.3633C77.9355 63.8099 78.1797 63.0286 78.1797 62.0195V17.293C78.1797 16.2839 77.9518 15.5189 77.4961 14.998C77.0404 14.4772 76.2266 14.0378 75.0547 13.6797V12.3125H124.469C125.51 12.3125 126.292 12.0846 126.812 11.6289C127.366 11.1732 127.805 10.3594 128.131 9.1875H129.449V25.3984H128.131C127.805 24.194 127.366 23.3639 126.812 22.9082C126.292 22.4525 125.51 22.2246 124.469 22.2246H91.2656V34.2363H111.871C112.88 34.2363 113.645 34.0085 114.166 33.5527C114.719 33.097 115.175 32.2832 115.533 31.1113H116.852V46.9316H115.533C115.208 45.7598 114.768 44.946 114.215 44.4902C113.694 44.002 112.913 43.7578 111.871 43.7578H91.2656ZM155.426 44.5391V62.0195C155.426 63.0286 155.654 63.8099 156.109 64.3633C156.565 64.8841 157.379 65.3236 158.551 65.6816V67H139.215V65.6328C140.354 65.3398 141.152 64.9167 141.607 64.3633C142.096 63.8099 142.34 63.0286 142.34 62.0195V17.293C142.34 16.2839 142.112 15.5189 141.656 14.998C141.201 14.4772 140.387 14.0378 139.215 13.6797V12.3125H175.055C179.71 12.3125 183.258 12.5566 185.699 13.0449C188.141 13.5007 190.322 14.347 192.242 15.584C196.181 18.1556 198.15 22.3548 198.15 28.1816C198.15 32.6087 196.93 36.0755 194.488 38.582C192.079 41.056 188.173 42.8464 182.77 43.9531L193.121 58.4062C195.009 61.0755 196.507 62.8984 197.613 63.875C198.753 64.819 200.038 65.4212 201.471 65.6816V67H178.521V65.6816C180.214 65.2259 181.061 64.4935 181.061 63.4844C181.061 62.7682 180.54 61.6777 179.498 60.2129L168.561 44.5391H155.426ZM155.426 34.627H175.152C178.147 34.627 180.361 34.3014 181.793 33.6504C183.811 32.7715 184.82 31.0299 184.82 28.4258C184.82 26.1146 184.104 24.5033 182.672 23.5918C181.272 22.6803 178.766 22.2246 175.152 22.2246H155.426V34.627ZM224.273 43.7578V62.0195C224.273 63.0286 224.501 63.8099 224.957 64.3633C225.413 64.8841 226.227 65.3236 227.398 65.6816V67H208.062V65.6328C209.202 65.3398 209.999 64.9167 210.455 64.3633C210.943 63.8099 211.188 63.0286 211.188 62.0195V17.293C211.188 16.2839 210.96 15.5189 210.504 14.998C210.048 14.4772 209.234 14.0378 208.062 13.6797V12.3125H257.086C258.128 12.3125 258.909 12.0846 259.43 11.6289C259.983 11.1732 260.423 10.3594 260.748 9.1875H262.066V25.3984H260.748C260.423 24.2266 259.983 23.4128 259.43 22.957C258.909 22.4688 258.128 22.2246 257.086 22.2246H224.273V34.2363H244.879C245.921 34.2363 246.702 34.0085 247.223 33.5527C247.743 33.097 248.183 32.2832 248.541 31.1113H249.859V46.9316H248.541C248.215 45.7598 247.776 44.946 247.223 44.4902C246.702 44.002 245.921 43.7578 244.879 43.7578H224.273ZM285.211 43.7578V57.0879H319.928C320.937 57.0879 321.702 56.86 322.223 56.4043C322.776 55.9486 323.215 55.1185 323.541 53.9141H324.908V70.125H323.541C323.248 68.9857 322.825 68.1719 322.271 67.6836C321.718 67.2279 320.937 67 319.928 67H269V65.6328C270.139 65.3398 270.937 64.9167 271.393 64.3633C271.881 63.8099 272.125 63.0286 272.125 62.0195V17.293C272.125 16.2839 271.897 15.5189 271.441 14.998C270.986 14.4772 270.172 14.0378 269 13.6797V12.3125H318.414C319.456 12.3125 320.237 12.0846 320.758 11.6289C321.311 11.1732 321.751 10.3594 322.076 9.1875H323.395V25.3984H322.076C321.751 24.194 321.311 23.3639 320.758 22.9082C320.237 22.4525 319.456 22.2246 318.414 22.2246H285.211V34.2363H305.816C306.826 34.2363 307.59 34.0085 308.111 33.5527C308.665 33.097 309.12 32.2832 309.479 31.1113H310.797V46.9316H309.479C309.153 45.7598 308.714 44.946 308.16 44.4902C307.639 44.002 306.858 43.7578 305.816 43.7578H285.211ZM353.326 57.0879H381.061C382.102 57.0879 382.883 56.86 383.404 56.4043C383.925 55.916 384.365 55.0859 384.723 53.9141H386.041V70.125H384.674C384.381 68.9857 383.958 68.1719 383.404 67.6836C382.883 67.2279 382.102 67 381.061 67H332.086V64.0703L363.971 22.2246H337.457C336.415 22.2246 335.634 22.4525 335.113 22.9082C334.592 23.3639 334.153 24.194 333.795 25.3984H332.477V9.1875H333.795C334.12 10.3594 334.544 11.1732 335.064 11.6289C335.618 12.0846 336.415 12.3125 337.457 12.3125H385.553V14.7051L353.326 57.0879ZM410.309 17.293V62.0195C410.309 63.0286 410.536 63.8099 410.992 64.3633C411.448 64.8841 412.262 65.3236 413.434 65.6816V67H394.098V65.6328C395.237 65.3398 396.035 64.9167 396.49 64.3633C396.979 63.8099 397.223 63.0286 397.223 62.0195V17.293C397.223 16.2839 396.995 15.5189 396.539 14.998C396.083 14.4772 395.27 14.0378 394.098 13.6797V12.3125H413.434V13.6797C412.262 14.0052 411.448 14.4447 410.992 14.998C410.536 15.5189 410.309 16.2839 410.309 17.293ZM453.863 11.1406C462.555 11.1406 469.798 13.3542 475.592 17.7812C482.525 23.1198 485.992 30.5579 485.992 40.0957C485.992 49.0475 482.525 56.1927 475.592 61.5312C469.863 65.9583 462.652 68.1719 453.961 68.1719C445.27 68.1719 438.059 65.9583 432.33 61.5312C425.364 56.1927 421.881 48.901 421.881 39.6562C421.881 30.3138 425.364 23.0221 432.33 17.7812C438.092 13.4518 445.27 11.2383 453.863 11.1406ZM453.912 21.4922C448.281 21.4922 443.691 23.2988 440.143 26.9121C436.855 30.2975 435.211 34.5456 435.211 39.6562C435.211 44.7344 436.855 48.9661 440.143 52.3516C443.691 55.9974 448.297 57.8203 453.961 57.8203C459.592 57.8203 464.182 55.9974 467.73 52.3516C471.018 48.9987 472.662 44.8483 472.662 39.9004C472.662 34.5293 471.018 30.1999 467.73 26.9121C464.15 23.3639 459.544 21.5573 453.912 21.4922ZM509.43 30.9648V62.0195C509.43 63.0286 509.658 63.8099 510.113 64.3633C510.602 64.9167 511.415 65.3561 512.555 65.6816V67H494.391V65.6328C495.53 65.3398 496.327 64.9167 496.783 64.3633C497.271 63.8099 497.516 63.0286 497.516 62.0195V17.293C497.516 16.2839 497.288 15.5189 496.832 14.998C496.376 14.4772 495.562 14.0378 494.391 13.6797V12.3125H515.387V13.6797C513.954 14.0378 513.238 14.6725 513.238 15.584C513.238 16.3652 513.759 17.2767 514.801 18.3184L544.098 47.4199V17.293C544.098 16.2839 543.87 15.5189 543.414 14.998C542.958 14.4447 542.145 14.0052 540.973 13.6797V12.3125H559.137V13.6797C557.965 14.0052 557.151 14.4447 556.695 14.998C556.24 15.5189 556.012 16.2839 556.012 17.293V62.0195C556.012 63.0286 556.24 63.8099 556.695 64.3633C557.151 64.8841 557.965 65.3236 559.137 65.6816V67H539.557V65.6816C540.989 65.3887 541.705 64.7865 541.705 63.875C541.705 63.4193 541.51 62.9473 541.119 62.459C540.729 61.9707 539.833 61.0104 538.434 59.5781L509.43 30.9648ZM585.016 43.7578V57.0879H619.732C620.742 57.0879 621.507 56.86 622.027 56.4043C622.581 55.9486 623.02 55.1185 623.346 53.9141H624.713V70.125H623.346C623.053 68.9857 622.63 68.1719 622.076 67.6836C621.523 67.2279 620.742 67 619.732 67H568.805V65.6328C569.944 65.3398 570.742 64.9167 571.197 64.3633C571.686 63.8099 571.93 63.0286 571.93 62.0195V17.293C571.93 16.2839 571.702 15.5189 571.246 14.998C570.79 14.4772 569.977 14.0378 568.805 13.6797V12.3125H618.219C619.26 12.3125 620.042 12.0846 620.562 11.6289C621.116 11.1732 621.555 10.3594 621.881 9.1875H623.199V25.3984H621.881C621.555 24.194 621.116 23.3639 620.562 22.9082C620.042 22.4525 619.26 22.2246 618.219 22.2246H585.016V34.2363H605.621C606.63 34.2363 607.395 34.0085 607.916 33.5527C608.469 33.097 608.925 32.2832 609.283 31.1113H610.602V46.9316H609.283C608.958 45.7598 608.518 44.946 607.965 44.4902C607.444 44.002 606.663 43.7578 605.621 43.7578H585.016Z" fill="#272829"/>
</svg>
